<?xml version="1.0" encoding="utf-8"?>
<!-- Generator: Adobe Illustrator 19.0.0, SVG Export Plug-In . SVG Version: 6.00 Build 0)  -->
<svg version="1.1" id="圖層_1" xmlns="http://www.w3.org/2000/svg" xmlns:xlink="http://www.w3.org/1999/xlink" x="0px" y="0px"
	 viewBox="-32 55.4 14 14" style="enable-background:new -32 55.4 14 14;" xml:space="preserve">
<style type="text/css">
	.st0{fill:#5D5D5D;}
</style>
<g id="Forma_1_2_">
	<g id="XMLID_50_">
		<path id="XMLID_51_" class="st0" d="M-25,62.3c1.5,0,2.7-1.4,2.7-3.2c0-1.8-0.4-3.2-2.7-3.2s-2.6,1.4-2.6,3.2
			C-27.6,60.9-26.5,62.3-25,62.3z M-30,67.3C-30,67.1-30,67.2-30,67.3L-30,67.3z M-20,67.3C-20,67.3-20,67.1-20,67.3L-20,67.3z
			 M-20,67.1c0-3.1-0.5-4-3.6-4.5c0,0-0.4,0.6-1.5,0.6s-1.3-0.6-1.3-0.6c-3.1,0.5-3.5,1.4-3.6,4.4c0,0.2,0,0.3,0,0.2
			c0,0.1,0,0.2,0,0.3c0,0,0.7,1.5,5,1.5s5-1.5,5-1.5c0-0.1,0-0.2,0-0.2C-20,67.3-20,67.3-20,67.1z"/>
	</g>
</g>
</svg>
