<?xml version="1.0" encoding="utf-8"?>
<!-- Generator: Adobe Illustrator 19.0.0, SVG Export Plug-In . SVG Version: 6.00 Build 0)  -->
<svg version="1.1" id="圖層_1" xmlns="http://www.w3.org/2000/svg" xmlns:xlink="http://www.w3.org/1999/xlink" x="0px" y="0px"
	 viewBox="0 0 25 25" enable-background="new 0 0 25 25" xml:space="preserve">
<g id="XMLID_2_">
	<circle id="XMLID_26_" fill="#3D9BDE" cx="12.5" cy="12.5" r="12.5"/>
	<g id="XMLID_3_">
		<g id="email5.psd_1_">
			<g id="Forma_1_26_">
				<g id="XMLID_46_">
					<path id="XMLID_47_" fill="#FFFFFF" d="M12.5,14.6L10.6,13l-5.3,4.5c0.2,0.2,0.5,0.3,0.7,0.3h12.8c0.3,0,0.5-0.1,0.7-0.3
						L14.4,13L12.5,14.6z M5,8.1V17l5.2-4.4L5,8.1z M14.8,12.6L20,17V8.1L14.8,12.6z"/>
				</g>
			</g>
		</g>
		<path id="XMLID_14_" fill="#FFFFFF" d="M18.9,7.1H6.1c-0.3,0-0.5,0.1-0.7,0.3l7.2,6.1l7.2-6.1C19.5,7.3,19.2,7.1,18.9,7.1z"/>
	</g>
</g>
</svg>
