<?xml version="1.0" encoding="utf-8"?>
<!-- Generator: Adobe Illustrator 19.0.0, SVG Export Plug-In . SVG Version: 6.00 Build 0)  -->
<svg version="1.1" id="圖層_1" xmlns="http://www.w3.org/2000/svg" xmlns:xlink="http://www.w3.org/1999/xlink" x="0px" y="0px"
	 viewBox="0 0 25 25" enable-background="new 0 0 25 25" xml:space="preserve">
<g id="XMLID_3_">
	<g id="XMLID_9_">
		<circle id="XMLID_11_" fill="#FFFFFF" cx="12.5" cy="12.5" r="12.5"/>
	</g>
	<g id="XMLID_2_">
		<g id="XMLID_10_">
			<path id="XMLID_29_" fill="#FD8544" d="M11.6,14.9c0.1-1.7,1.3-2.9,3-3.1c0.9-0.1,1.7,0.2,2.3,0.8c0.4-0.4,0.8-0.6,1.4-0.7
				c0.1-0.3,0.1-0.7,0.1-1.1c0-2.4-1.9-4.3-4.3-4.3c-1.3,0-2.4,0.5-3.2,1.4C10.2,7.1,9,6.5,7.8,6.5c-2.4,0-4.3,1.9-4.3,4.3
				C3.5,12,4,13.2,4.9,14h0l4.7,4.7c0.5,0.5,0.9,0.9,1.4,0.9c0.5,0,0.9-0.5,1.4-0.9l0.8-0.8l-0.6-0.6C11.9,16.7,11.6,15.8,11.6,14.9
				z"/>
		</g>
		<g id="Forma_1_21_">
			<path id="XMLID_6_" fill-rule="evenodd" clip-rule="evenodd" fill="#FD8544" d="M21.5,15.1c0-1.5-1.2-2.7-2.7-2.7
				c-0.8,0-1.5,0.3-2,0.9c-0.5-0.5-1.2-0.9-2-0.9c-1.5,0-2.7,1.2-2.7,2.7c0,0.8,0.3,1.5,0.9,2h0l2.9,2.9c0.3,0.3,0.6,0.6,0.9,0.6
				s0.6-0.3,0.9-0.6l2.9-2.9h0C21.2,16.5,21.5,15.8,21.5,15.1z"/>
		</g>
	</g>
</g>
</svg>
