<?xml version="1.0" encoding="utf-8"?>
<!-- Generator: Adobe Illustrator 19.0.0, SVG Export Plug-In . SVG Version: 6.00 Build 0)  -->
<svg version="1.1" id="圖層_1" xmlns="http://www.w3.org/2000/svg" xmlns:xlink="http://www.w3.org/1999/xlink" x="0px" y="0px"
	 viewBox="0 0 25 25" enable-background="new 0 0 25 25" xml:space="preserve">
<g id="XMLID_10_">
	<circle id="XMLID_12_" fill="#F9C625" cx="12.5" cy="12.5" r="12.5"/>
</g>
<g id="pile.psd_3_">
	<g id="Forma_1_30_">
		<g id="XMLID_20_">
			<path id="XMLID_21_" fill-rule="evenodd" clip-rule="evenodd" fill="#FFFFFF" d="M6.8,11.5c0,0,2.8,0.9,4,1.3
				c0.3,0.1,0.7,0.1,1,0l8.5-1.9c0,0-0.1-0.2-0.1-0.5C20,10.1,19.7,10,19.4,10l-7.7,1.8c-0.3,0.1-0.7,0-1,0l-4.6-1.4
				C6,10.2,5.8,10,5.7,9.8C5.5,9.6,5.5,9.3,5.6,9.1c0.2-0.5,0.7-0.8,1.2-0.6l2.8,0.9c0.2,0.1,1.3,0.5,3.2,0c2.4-0.6,7.7-1.6,7.7-1.6
				l-0.2-1c0,0,0,0,0,0l-5-0.7c-0.5-0.1-1.4-0.1-2,0.1L6.6,7.4c-0.9,0-1.7,0.5-2,1.3c-0.2,0.5-0.1,1,0.1,1.5
				c0.1,0.2,0.3,0.4,0.5,0.6c-0.3,0.2-0.5,0.6-0.7,0.9c-0.2,0.5-0.1,1,0.1,1.5c0.1,0.3,0.3,0.5,0.5,0.6c-0.3,0.2-0.5,0.6-0.7,0.9
				c-0.2,0.5-0.1,1,0.1,1.5c0.2,0.5,0.6,0.8,1.1,1l4.8,1.5c0.3,0.1,0.7,0.1,1,0l8.5-1.9c0,0-0.1-0.2-0.1-0.5
				c-0.1-0.3-0.3-0.4-0.6-0.4l-7.7,1.8c-0.3,0.1-0.7,0-1,0l-4.6-1.4c-0.2-0.1-0.4-0.2-0.6-0.5c-0.1-0.2-0.1-0.5-0.1-0.7
				c0.2-0.5,0.7-0.8,1.2-0.6c0,0,2.8,0.9,3.9,1.2c0.3,0.1,0.7,0.1,1,0l8.5-1.9c0,0-0.1-0.2-0.1-0.5c-0.1-0.3-0.3-0.4-0.6-0.4
				l-7.7,1.8c-0.3,0.1-0.7,0-1,0l-4.6-1.4c-0.2-0.1-0.4-0.2-0.6-0.5c-0.1-0.2-0.1-0.5-0.1-0.7C5.7,11.6,6.3,11.4,6.8,11.5z"/>
		</g>
	</g>
</g>
</svg>
