<?xml version="1.0" encoding="utf-8"?>
<!-- Generator: Adobe Illustrator 19.0.0, SVG Export Plug-In . SVG Version: 6.00 Build 0)  -->
<svg version="1.1" id="圖層_1" xmlns="http://www.w3.org/2000/svg" xmlns:xlink="http://www.w3.org/1999/xlink" x="0px" y="0px"
	 viewBox="-35 49 25 25" style="enable-background:new -35 49 25 25;" xml:space="preserve">
<style type="text/css">
	.st0{fill:#F75E57;}
</style>
<g id="flag97.psd_1_">
	<g id="XMLID_35_">
		<g id="XMLID_36_">
			<g id="XMLID_37_">
				<path id="XMLID_38_" class="st0" d="M-16.1,55.9c-0.1-0.1-0.2-0.1-0.3-0.1c-0.1,0-0.2,0.1-0.4,0.2c-0.2,0.1-0.4,0.2-0.7,0.4
					c-0.2,0.1-0.5,0.3-0.8,0.4c-0.4,0-0.7,0-1,0c-0.3,0-0.5,0-0.7-0.1c-0.6-0.3-1.2-0.6-1.6-0.7c-0.5-0.1-1-0.2-1.5-0.2
					c-0.9,0-2,0.3-3.2,0.9c-0.3,0.1-0.5,0.2-0.6,0.3l-0.1-0.9c0.3-0.2,0.4-0.6,0.4-0.9c0-0.7-0.5-1.2-1.2-1.2
					c-0.7,0-1.2,0.5-1.2,1.2c0,0.4,0.2,0.8,0.6,1l1.6,12.1c0,0.4,0.4,0.6,0.7,0.6C-26,69-26,69-26,69c0.4-0.1,0.7-0.4,0.6-0.8
					l-0.6-4.9c1.2-0.6,2.2-0.9,3.1-0.9c0.4,0,0.7,0.1,1.1,0.2c0.3,0.1,0.6,0.2,0.8,0.4c0.2,0.1,0.5,0.3,0.8,0.4
					c0.3,0.1,0.6,0.2,0.9,0.2c0.8,0,1.7-0.3,2.8-0.9c0.1-0.1,0.2-0.1,0.3-0.2c0.2-0.2,0.2-0.3,0.2-0.4v-5.8
					C-16,56.1-16,56-16.1,55.9z"/>
			</g>
		</g>
	</g>
</g>
</svg>
