<?xml version="1.0" encoding="utf-8"?>
<!-- Generator: Adobe Illustrator 19.0.0, SVG Export Plug-In . SVG Version: 6.00 Build 0)  -->
<svg version="1.1" id="圖層_1" xmlns="http://www.w3.org/2000/svg" xmlns:xlink="http://www.w3.org/1999/xlink" x="0px" y="0px"
	 viewBox="-31.5 49 25 25" style="enable-background:new -31.5 49 25 25;" xml:space="preserve">
<style type="text/css">
	.st0{fill:#F9C625;}
</style>
<g id="pile.psd_1_">
	<g id="XMLID_35_">
		<g id="XMLID_36_">
			<g id="XMLID_37_">
				<path id="XMLID_38_" class="st0" d="M-24.7,60.6c0,0,2.8,0.9,4,1.3c0.3,0.1,0.7,0.1,1,0l8.5-1.9c0,0-0.1-0.2-0.1-0.5
					c-0.1-0.3-0.3-0.4-0.6-0.4l-7.9,1.7c-0.3,0.1-0.7,0-1,0l-4.5-1.5c-0.2,0-0.4-0.2-0.5-0.4c-0.2-0.3-0.2-0.5-0.1-0.8
					c0.2-0.5,0.7-0.8,1.2-0.6l2.8,0.9c0.2,0.1,1.3,0.5,3.2,0c2.4-0.6,7.7-1.6,7.7-1.6l-0.2-1l0,0l-5-0.7c-0.6,0-1.5,0-2,0.1
					l-6.7,1.3c-0.9,0-1.7,0.5-2,1.3c-0.1,0.5-0.1,1.1,0.2,1.5c0.1,0.2,0.3,0.4,0.5,0.6c-0.3,0.3-0.6,0.6-0.7,1
					c-0.2,0.5-0.1,1,0.1,1.5c0.1,0.3,0.3,0.5,0.5,0.6c-0.3,0.2-0.5,0.5-0.6,0.9c-0.2,0.5-0.1,1,0.1,1.5c0.2,0.5,0.6,0.8,1.1,1
					l4.8,1.5c0.3,0.1,0.7,0.1,1,0l8.5-1.9c0,0-0.1-0.2-0.1-0.5c-0.1-0.3-0.3-0.4-0.6-0.4l-7.7,1.8c-0.3,0.1-0.7,0-1,0l-4.6-1.4
					c-0.2-0.1-0.4-0.2-0.6-0.5c0-0.3,0-0.5,0.1-0.8c0.2-0.5,0.7-0.8,1.2-0.6c0,0,2.8,0.9,3.9,1.2c0.3,0.1,0.7,0.1,1,0l8.5-1.9
					c0,0-0.1-0.2-0.1-0.5s-0.4-0.4-0.7-0.3l-7.7,1.8c-0.3,0.1-0.7,0-1,0l-4.5-1.5c-0.3-0.1-0.5-0.3-0.6-0.5c-0.1-0.2-0.1-0.5,0-0.7
					C-25.8,60.7-25.2,60.4-24.7,60.6z"/>
			</g>
		</g>
	</g>
</g>
</svg>
