<?xml version="1.0" encoding="utf-8"?>
<!-- Generator: Adobe Illustrator 19.0.0, SVG Export Plug-In . SVG Version: 6.00 Build 0)  -->
<svg version="1.1" id="圖層_1" xmlns="http://www.w3.org/2000/svg" xmlns:xlink="http://www.w3.org/1999/xlink" x="0px" y="0px"
	 viewBox="-29.5 49.8 25 25" style="enable-background:new -29.5 49.8 25 25;" xml:space="preserve">
<style type="text/css">
	.st0{fill:#31C2A6;}
</style>
<g id="XMLID_2_">
	<g id="megaphone19.psd_1_">
		<g id="XMLID_43_">
			<g id="XMLID_45_">
				<g id="XMLID_46_">
					<path id="XMLID_47_" class="st0" d="M-11.7,55.5c-0.1,0-0.3,0.1-0.4,0.2c0,0-1.3,1.7-4.7,2.8c-0.2,0.1-0.5,0.2-0.8,0.2
						c-0.2,0-0.2,0-0.2,0c-0.2-0.2-0.3-0.3-0.6-0.3h-3.2c-0.4,0-0.6,0.2-0.6,0.5v0.2c0,0.1-0.1,0.1-0.1,0.1h-0.1
						c-0.4,0-0.8,0.4-0.8,0.8v2.2c0,0.4,0.3,0.8,0.8,0.8c0,0,0,0,0.1,0c0,0,0.1,0,0.1,0.1v0.4c0,0.3,0.3,0.6,0.6,0.6
						c0,0,0.2,0,0.3,0c0.1,0,0.1,0.1,0.1,0.1l0.9,4.1c0.1,0.4,0.5,0.7,0.9,0.7h1c0.2,0,0.4-0.1,0.5-0.2s0.2-0.4,0.1-0.6l-0.9-4
						c0,0,0-0.1,0.1-0.1h0.2c0.2,0,0.4-0.1,0.5-0.3c0-0.1,0.2-0.1,0.2-0.1c0.4,0.1,0.7,0.2,0.9,0.2c3.3,1,4.6,2.7,4.7,2.8
						c0.1,0.2,0.2,0.2,0.4,0.2l0,0c0.1,0,0.2-0.1,0.3-0.2c0-0.1,0.1-0.2,0.1-0.3V56C-11.4,55.5-11.7,55.5-11.7,55.5z"/>
				</g>
			</g>
			<path id="XMLID_44_" class="st0" d="M-22,59.1l-1.5-0.1c-0.6,0-1.3,0.2-1.7,0.6c-0.5,0.4-0.8,1-0.8,1.7s0.3,1.2,0.7,1.7
				c0.5,0.4,1.1,0.7,1.7,0.6l1.3-0.1l0.1,0.3C-22.1,62.2-21.9,60.7-22,59.1z"/>
		</g>
	</g>
	<path id="XMLID_89_" class="st0" d="M-8.9,58.3c-0.1-0.2-0.4-0.2-0.5-0.1c-0.2,0.1-0.2,0.4-0.1,0.5c0.5,0.8,0.8,1.7,0.8,2.6
		c0,1-0.3,1.9-0.8,2.6c-0.1,0.2-0.1,0.4,0.1,0.5c0.1,0,0.1,0.1,0.2,0.1s0.2-0.1,0.3-0.2c0.6-0.7,0.9-1.8,0.9-2.9
		C-8,60.2-8.3,59.2-8.9,58.3z"/>
	<path id="XMLID_147_" class="st0" d="M-10.2,59.4c-0.1-0.2-0.4-0.2-0.5-0.1c-0.2,0.1-0.2,0.4-0.1,0.5c0.3,0.4,0.5,1,0.5,1.5
		c0,0.6-0.2,1.1-0.5,1.5c-0.1,0.2-0.1,0.4,0.1,0.5c0,0.2,0.1,0.2,0.2,0.2s0.2-0.1,0.3-0.2c0.4-0.6,0.6-1.3,0.6-2S-9.8,60-10.2,59.4z
		"/>
</g>
</svg>
