<?xml version="1.0" encoding="utf-8"?>
<!-- Generator: Adobe Illustrator 19.0.0, SVG Export Plug-In . SVG Version: 6.00 Build 0)  -->
<svg version="1.1" id="圖層_1" xmlns="http://www.w3.org/2000/svg" xmlns:xlink="http://www.w3.org/1999/xlink" x="0px" y="0px"
	 viewBox="-29.5 49.5 25 25" style="enable-background:new -29.5 49.5 25 25;" xml:space="preserve">
<style type="text/css">
	.st0{fill:#FD8544;}
</style>
<g id="XMLID_103_">
	<g id="XMLID_98_">
		<path id="XMLID_122_" class="st0" d="M-17.9,63.3c0.1-1.7,1.3-2.9,3-3.1c0.9-0.1,1.7,0.1,2.3,0.7c0.4-0.4,0.8-0.6,1.4-0.7
			c0.1-0.3,0.1-0.7,0.1-1.1c0-2.3-1.9-4.2-4.3-4.2c-1.2,0-2.4,0.5-3.2,1.4c-0.7-0.9-1.9-1.4-3.1-1.4c-2.4,0-4.3,1.9-4.3,4.3
			c0,1.3,0.5,2.4,1.4,3.2l0,0l4.6,4.6c0.5,0.5,1,0.9,1.4,0.9c0.5,0,0.9-0.5,1.4-0.9l0.8-0.8l-0.6-0.6
			C-17.6,65.1-17.9,64.3-17.9,63.3z"/>
	</g>
	<g id="Forma_1_6_">
		<path id="XMLID_107_" class="st0" d="M-8,63.5c0-1.5-1.2-2.7-2.7-2.7c-0.8,0-1.5,0.3-2,0.9c-0.5-0.5-1.2-0.9-2-0.9
			c-1.5,0-2.7,1.2-2.7,2.7c0,0.8,0.3,1.5,0.9,2l0,0l2.9,2.9c0.3,0.3,0.6,0.6,0.9,0.6s0.6-0.3,0.9-0.6l2.9-2.9l0,0
			C-8.3,64.9-8,64.3-8,63.5z"/>
	</g>
</g>
</svg>
